<svg width="40" height="36" viewBox="0 0 40 36" fill="none" xmlns="http://www.w3.org/2000/svg">
<g clip-path="url(#clip0_773_1593)">
<mask id="mask0_773_1593" style="mask-type:alpha" maskUnits="userSpaceOnUse" x="0" y="0" width="40" height="36">
<path d="M5.41822 8.78603C6.87038 7.76827 9.2248 7.76827 10.677 8.78603C12.1291 9.80378 12.1291 11.4539 10.677 12.4717C9.2248 13.4894 6.87038 13.4894 5.41822 12.4717C3.96606 11.4539 3.96606 9.80378 5.41822 8.78603Z" fill="#2FCEB1"/>
<path d="M20.4906 22.607C22.6689 21.0804 26.2004 21.0804 28.3787 22.607C30.5569 24.1337 30.5569 26.6088 28.3787 28.1354C26.2004 29.6621 22.6689 29.6621 20.4906 28.1354C18.3124 26.6088 18.3124 24.1337 20.4906 22.607Z" fill="#2FCEB1"/>
<path d="M12.4893 15.6964C14.3045 14.4243 17.2475 14.4243 19.0627 15.6964C20.8779 16.9686 20.8779 19.0313 19.0627 20.3035C17.2475 21.5756 14.3045 21.5756 12.4893 20.3035C10.6741 19.0313 10.6741 16.9686 12.4893 15.6964Z" fill="#2FCEB1"/>
<path d="M0.81684 16.6179C1.90596 15.8546 3.67177 15.8546 4.76089 16.6179C5.85 17.3812 5.85 18.6187 4.76089 19.3821C3.67177 20.1454 1.90596 20.1454 0.81684 19.3821C-0.27228 18.6187 -0.272279 17.3812 0.81684 16.6179Z" fill="#2FCEB1"/>
<path d="M12.4893 30.4389C14.3045 29.1667 17.2475 29.1667 19.0627 30.4389C20.8779 31.7111 20.8779 33.7737 19.0627 35.0459C17.2475 36.318 14.3045 36.318 12.4893 35.0459C10.6741 33.7737 10.6741 31.7111 12.4893 30.4389Z" fill="#2FCEB1"/>
<path d="M5.41822 23.5284C6.87038 22.5106 9.2248 22.5106 10.677 23.5284C12.1291 24.5461 12.1291 26.1963 10.677 27.214C9.2248 28.2317 6.87038 28.2317 5.41822 27.214C3.96606 26.1963 3.96607 24.5461 5.41822 23.5284Z" fill="#2FCEB1"/>
<path d="M12.4893 0.954113C14.3045 -0.318014 17.2475 -0.318014 19.0627 0.954113C20.8779 2.22633 20.8779 4.28894 19.0627 5.56116C17.2475 6.83329 14.3045 6.83329 12.4893 5.56116C10.6741 4.28894 10.6741 2.22633 12.4893 0.954113Z" fill="#2FCEB1"/>
<path d="M30.078 15.2358C32.2563 13.7092 35.7879 13.7092 37.9661 15.2358C40.1444 16.7624 40.1444 19.2376 37.9661 20.7642C35.7879 22.2909 32.2563 22.2909 30.078 20.7642C27.8998 19.2376 27.8998 16.7624 30.078 15.2358Z" fill="#2FCEB1"/>
<path d="M20.4906 7.86465C22.6689 6.33797 26.2004 6.33797 28.3787 7.86465C30.5569 9.39124 30.5569 11.8663 28.3787 13.393C26.2004 14.9196 22.6689 14.9196 20.4906 13.393C18.3124 11.8663 18.3124 9.39124 20.4906 7.86465Z" fill="#2FCEB1"/>
</mask>
<g mask="url(#mask0_773_1593)">
<rect width="39.6253" height="36" fill="#47968E"/>
</g>
</g>
<defs>
<clipPath id="clip0_773_1593">
<rect width="39.6" height="36" fill="white" transform="matrix(1 0 0 -1 0 36)"/>
</clipPath>
</defs>
</svg>
