<svg width="677" height="188" viewBox="0 0 677 188" fill="none" xmlns="http://www.w3.org/2000/svg">
<g clip-path="url(#clip0_975_629)">
<mask id="mask0_975_629" style="mask-type:alpha" maskUnits="userSpaceOnUse" x="0" y="0" width="209" height="189">
<path d="M28.5958 45.8823C36.26 40.5673 48.6861 40.5673 56.3504 45.8823C64.0143 51.1972 64.0143 59.8145 56.3504 65.1295C48.6861 70.4445 36.26 70.4445 28.5958 65.1295C20.9316 59.8145 20.9316 51.1972 28.5958 45.8823Z" fill="#2FCEB1"/>
<path d="M108.144 118.058C119.641 110.086 138.28 110.086 149.776 118.058C161.272 126.031 161.272 138.957 149.776 146.929C138.28 154.901 119.641 154.901 108.144 146.929C96.6485 138.957 96.6485 126.031 108.144 118.058Z" fill="#2FCEB1"/>
<path d="M65.9156 81.9716C75.4958 75.3283 91.0284 75.3283 100.609 81.9716C110.189 88.6155 110.189 99.3869 100.609 106.031C91.0284 112.674 75.4958 112.674 65.9156 106.031C56.3354 99.3869 56.3354 88.6155 65.9156 81.9716Z" fill="#2FCEB1"/>
<path d="M4.3111 86.7825C10.0592 82.7964 19.3788 82.7964 25.1269 86.7825C30.875 90.7686 30.875 97.2314 25.1269 101.218C19.3788 105.204 10.0592 105.204 4.3111 101.218C-1.43703 97.2314 -1.43703 90.7686 4.3111 86.7825Z" fill="#2FCEB1"/>
<path d="M65.9156 158.959C75.4958 152.315 91.0284 152.315 100.609 158.959C110.189 165.603 110.189 176.374 100.609 183.018C91.0284 189.661 75.4958 189.661 65.9156 183.018C56.3354 176.374 56.3354 165.603 65.9156 158.959Z" fill="#2FCEB1"/>
<path d="M28.5958 122.869C36.2599 117.554 48.686 117.554 56.3504 122.869C64.0142 128.184 64.0142 136.802 56.3504 142.116C48.686 147.431 36.2599 147.431 28.5958 142.116C20.9316 136.802 20.9316 128.184 28.5958 122.869Z" fill="#2FCEB1"/>
<path d="M65.9156 4.98239C75.4958 -1.66094 91.0284 -1.66094 100.609 4.98239C110.189 11.6262 110.189 22.3976 100.609 29.0414C91.0284 35.6848 75.4958 35.6848 65.9156 29.0414C56.3354 22.3976 56.3354 11.6262 65.9156 4.98239Z" fill="#2FCEB1"/>
<path d="M158.745 79.5652C170.241 71.593 188.88 71.593 200.376 79.5652C211.873 87.5373 211.873 100.463 200.376 108.436C188.88 116.408 170.241 116.408 158.745 108.436C147.249 100.463 147.249 87.5373 158.745 79.5652Z" fill="#2FCEB1"/>
<path d="M108.144 41.0719C119.641 33.0992 138.28 33.0992 149.776 41.0719C161.272 49.0441 161.272 61.9696 149.776 69.9422C138.28 77.9144 119.641 77.9144 108.144 69.9422C96.6485 61.9696 96.6485 49.0441 108.144 41.0719Z" fill="#2FCEB1"/>
</mask>
<g mask="url(#mask0_975_629)">
<rect width="209.134" height="188" fill="#47968E"/>
</g>
</g>
<path d="M302.6 137.28C295.688 137.28 289.203 136 283.144 133.44C277.171 130.795 271.923 127.168 267.4 122.56C262.963 117.867 259.464 112.405 256.904 106.176C254.429 99.9467 253.192 93.2053 253.192 85.952C253.192 78.784 254.429 72.128 256.904 65.984C259.464 59.7547 262.963 54.336 267.4 49.728C271.923 45.0347 277.171 41.3653 283.144 38.72C289.117 36.0747 295.603 34.752 302.6 34.752C309.171 34.752 314.803 35.6053 319.496 37.312C324.275 39.0187 329.053 41.8347 333.832 45.76C334.515 46.272 335.027 46.8267 335.368 47.424C335.795 47.936 336.051 48.4907 336.136 49.088C336.307 49.6 336.392 50.24 336.392 51.008C336.392 52.6293 335.795 53.9947 334.6 55.104C333.491 56.128 332.125 56.7253 330.504 56.896C328.883 56.9813 327.304 56.4267 325.768 55.232C322.611 52.5013 319.325 50.4107 315.912 48.96C312.584 47.5093 308.147 46.784 302.6 46.784C297.565 46.784 292.829 47.808 288.392 49.856C283.955 51.904 280.029 54.72 276.616 58.304C273.288 61.888 270.685 66.0693 268.808 70.848C266.931 75.5413 265.992 80.576 265.992 85.952C265.992 91.4133 266.931 96.5333 268.808 101.312C270.685 106.005 273.288 110.144 276.616 113.728C280.029 117.312 283.955 120.128 288.392 122.176C292.829 124.139 297.565 125.12 302.6 125.12C306.952 125.12 311.048 124.395 314.888 122.944C318.813 121.408 322.568 119.317 326.152 116.672C327.688 115.563 329.181 115.093 330.632 115.264C332.168 115.349 333.448 115.947 334.472 117.056C335.496 118.08 336.008 119.531 336.008 121.408C336.008 122.261 335.837 123.115 335.496 123.968C335.155 124.736 334.643 125.461 333.96 126.144C329.352 129.813 324.403 132.587 319.112 134.464C313.907 136.341 308.403 137.28 302.6 137.28ZM367.54 136C363.785 136 360.457 134.976 357.556 132.928C354.655 130.88 352.393 128.107 350.772 124.608C349.151 121.024 348.34 116.928 348.34 112.32V42.432C348.34 40.5547 348.937 39.0187 350.132 37.824C351.327 36.6293 352.863 36.032 354.74 36.032C356.617 36.032 358.153 36.6293 359.348 37.824C360.543 39.0187 361.14 40.5547 361.14 42.432V112.32C361.14 115.477 361.737 118.08 362.932 120.128C364.127 122.176 365.663 123.2 367.54 123.2H370.74C372.447 123.2 373.812 123.797 374.836 124.992C375.945 126.187 376.5 127.723 376.5 129.6C376.5 131.477 375.689 133.013 374.068 134.208C372.447 135.403 370.356 136 367.796 136H367.54ZM409.464 136.512C403.235 136.512 397.645 134.976 392.696 131.904C387.747 128.747 383.821 124.523 380.92 119.232C378.104 113.856 376.696 107.797 376.696 101.056C376.696 94.3147 378.232 88.256 381.304 82.88C384.461 77.504 388.685 73.28 393.976 70.208C399.352 67.0507 405.368 65.472 412.024 65.472C418.68 65.472 424.653 67.0507 429.944 70.208C435.235 73.28 439.416 77.504 442.488 82.88C445.645 88.256 447.224 94.3147 447.224 101.056H442.232C442.232 107.797 440.781 113.856 437.88 119.232C435.064 124.523 431.181 128.747 426.232 131.904C421.283 134.976 415.693 136.512 409.464 136.512ZM412.024 124.992C416.376 124.992 420.259 123.968 423.672 121.92C427.085 119.787 429.773 116.928 431.736 113.344C433.699 109.675 434.68 105.579 434.68 101.056C434.68 96.448 433.699 92.352 431.736 88.768C429.773 85.0987 427.085 82.24 423.672 80.192C420.259 78.0587 416.376 76.992 412.024 76.992C407.757 76.992 403.875 78.0587 400.376 80.192C396.963 82.24 394.232 85.0987 392.184 88.768C390.221 92.352 389.24 96.448 389.24 101.056C389.24 105.579 390.221 109.675 392.184 113.344C394.232 116.928 396.963 119.787 400.376 121.92C403.875 123.968 407.757 124.992 412.024 124.992ZM440.696 136.128C438.819 136.128 437.24 135.531 435.96 134.336C434.765 133.056 434.168 131.477 434.168 129.6V110.016L436.6 96.448L447.224 101.056V129.6C447.224 131.477 446.584 133.056 445.304 134.336C444.109 135.531 442.573 136.128 440.696 136.128ZM487.007 136C482.74 136 478.9 134.933 475.487 132.8C472.074 130.581 469.386 127.595 467.423 123.84C465.46 120.085 464.479 115.861 464.479 111.168V50.112C464.479 48.2347 465.076 46.6987 466.271 45.504C467.466 44.3093 469.002 43.712 470.879 43.712C472.756 43.712 474.292 44.3093 475.487 45.504C476.682 46.6987 477.279 48.2347 477.279 50.112V111.168C477.279 114.581 478.218 117.44 480.095 119.744C481.972 122.048 484.276 123.2 487.007 123.2H491.359C492.895 123.2 494.175 123.797 495.199 124.992C496.308 126.187 496.863 127.723 496.863 129.6C496.863 131.477 496.138 133.013 494.687 134.208C493.322 135.403 491.53 136 489.311 136H487.007ZM458.591 79.552C456.799 79.552 455.348 79.04 454.239 78.016C453.13 76.992 452.575 75.712 452.575 74.176C452.575 72.4693 453.13 71.104 454.239 70.08C455.348 69.056 456.799 68.544 458.591 68.544H488.159C489.951 68.544 491.402 69.056 492.511 70.08C493.62 71.104 494.175 72.4693 494.175 74.176C494.175 75.712 493.62 76.992 492.511 78.016C491.402 79.04 489.951 79.552 488.159 79.552H458.591ZM533.262 136C528.995 136 525.155 134.933 521.742 132.8C518.329 130.581 515.641 127.595 513.678 123.84C511.715 120.085 510.734 115.861 510.734 111.168V50.112C510.734 48.2347 511.331 46.6987 512.526 45.504C513.721 44.3093 515.257 43.712 517.134 43.712C519.011 43.712 520.547 44.3093 521.742 45.504C522.937 46.6987 523.534 48.2347 523.534 50.112V111.168C523.534 114.581 524.473 117.44 526.35 119.744C528.227 122.048 530.531 123.2 533.262 123.2H537.614C539.15 123.2 540.43 123.797 541.454 124.992C542.563 126.187 543.118 127.723 543.118 129.6C543.118 131.477 542.393 133.013 540.942 134.208C539.577 135.403 537.785 136 535.566 136H533.262ZM504.846 79.552C503.054 79.552 501.603 79.04 500.494 78.016C499.385 76.992 498.83 75.712 498.83 74.176C498.83 72.4693 499.385 71.104 500.494 70.08C501.603 69.056 503.054 68.544 504.846 68.544H534.414C536.206 68.544 537.657 69.056 538.766 70.08C539.875 71.104 540.43 72.4693 540.43 74.176C540.43 75.712 539.875 76.992 538.766 78.016C537.657 79.04 536.206 79.552 534.414 79.552H504.846ZM584.381 136.512C577.298 136.512 570.984 135.019 565.437 132.032C559.976 128.96 555.666 124.779 552.509 119.488C549.437 114.112 547.901 107.968 547.901 101.056C547.901 94.0587 549.352 87.9147 552.253 82.624C555.24 77.248 559.336 73.0667 564.541 70.08C569.746 67.008 575.72 65.472 582.461 65.472C589.117 65.472 594.834 66.9653 599.613 69.952C604.392 72.8533 608.018 76.9067 610.493 82.112C613.053 87.232 614.333 93.1627 614.333 99.904C614.333 101.525 613.778 102.891 612.669 104C611.56 105.024 610.152 105.536 608.445 105.536H556.861V95.296H608.061L602.813 98.88C602.728 94.6133 601.874 90.816 600.253 87.488C598.632 84.0747 596.328 81.3867 593.341 79.424C590.354 77.4613 586.728 76.48 582.461 76.48C577.597 76.48 573.416 77.5467 569.917 79.68C566.504 81.8133 563.901 84.7573 562.109 88.512C560.317 92.1813 559.421 96.3627 559.421 101.056C559.421 105.749 560.488 109.931 562.621 113.6C564.754 117.269 567.698 120.171 571.453 122.304C575.208 124.437 579.517 125.504 584.381 125.504C587.026 125.504 589.714 125.035 592.445 124.096C595.261 123.072 597.522 121.92 599.229 120.64C600.509 119.701 601.874 119.232 603.325 119.232C604.861 119.147 606.184 119.573 607.293 120.512C608.744 121.792 609.512 123.2 609.597 124.736C609.682 126.272 609 127.595 607.549 128.704C604.648 131.008 601.021 132.885 596.669 134.336C592.402 135.787 588.306 136.512 584.381 136.512ZM632.137 92.224C632.137 87.104 633.374 82.5387 635.849 78.528C638.409 74.432 641.822 71.1893 646.089 68.8C650.356 66.4107 655.049 65.216 660.169 65.216C665.289 65.216 669.086 66.0693 671.561 67.776C674.121 69.3973 675.102 71.36 674.505 73.664C674.249 74.8587 673.737 75.7973 672.969 76.48C672.286 77.0773 671.476 77.4613 670.537 77.632C669.598 77.8027 668.574 77.76 667.465 77.504C662.004 76.3947 657.097 76.3093 652.745 77.248C648.393 78.1867 644.937 79.936 642.377 82.496C639.902 85.056 638.665 88.2987 638.665 92.224H632.137ZM632.265 136C630.217 136 628.638 135.488 627.529 134.464C626.42 133.355 625.865 131.733 625.865 129.6V72.384C625.865 70.336 626.42 68.7573 627.529 67.648C628.638 66.5387 630.217 65.984 632.265 65.984C634.398 65.984 635.977 66.5387 637.001 67.648C638.11 68.672 638.665 70.2507 638.665 72.384V129.6C638.665 131.648 638.11 133.227 637.001 134.336C635.977 135.445 634.398 136 632.265 136Z" fill="#0D1F2A" fill-opacity="0.9"/>
<defs>
<clipPath id="clip0_975_629">
<rect width="209" height="188" fill="white" transform="matrix(1 0 0 -1 0 188)"/>
</clipPath>
</defs>
</svg>
