<svg width="167" height="44" viewBox="0 0 167 44" fill="none" xmlns="http://www.w3.org/2000/svg">
<g clip-path="url(#clip0_886_629)">
<mask id="mask0_886_629" style="mask-type:alpha" maskUnits="userSpaceOnUse" x="0" y="2" width="45" height="40">
<path d="M6.02019 11.7623C7.6337 10.6314 10.2497 10.6314 11.8633 11.7623C13.4767 12.8931 13.4767 14.7266 11.8633 15.8574C10.2497 16.9883 7.6337 16.9883 6.02019 15.8574C4.40668 14.7266 4.40668 12.8931 6.02019 11.7623Z" fill="#2FCEB1"/>
<path d="M22.7671 27.1188C25.1874 25.4226 29.1113 25.4226 31.5317 27.1188C33.9519 28.8151 33.9519 31.5653 31.5317 33.2615C29.1113 34.9578 25.1874 34.9578 22.7671 33.2615C20.3469 31.5653 20.3469 28.8151 22.7671 27.1188Z" fill="#2FCEB1"/>
<path d="M13.8772 19.4406C15.894 18.0271 19.1641 18.0271 21.181 19.4406C23.1978 20.8542 23.1978 23.1459 21.181 24.5595C19.1641 25.973 15.894 25.973 13.8772 24.5595C11.8603 23.1459 11.8603 20.8542 13.8772 19.4406Z" fill="#2FCEB1"/>
<path d="M0.907599 20.4644C2.11773 19.6163 4.07974 19.6163 5.28988 20.4644C6.50001 21.3125 6.50001 22.6876 5.28988 23.5358C4.07974 24.3839 2.11773 24.3839 0.907599 23.5358C-0.302534 22.6876 -0.302533 21.3125 0.907599 20.4644Z" fill="#2FCEB1"/>
<path d="M13.8772 35.821C15.894 34.4074 19.1641 34.4074 21.181 35.821C23.1978 37.2345 23.1978 39.5263 21.181 40.9398C19.1641 42.3534 15.894 42.3534 13.8772 40.9398C11.8603 39.5263 11.8603 37.2345 13.8772 35.821Z" fill="#2FCEB1"/>
<path d="M6.02019 28.1427C7.6337 27.0119 10.2497 27.0119 11.8633 28.1427C13.4767 29.2736 13.4767 31.107 11.8633 32.2378C10.2497 33.3686 7.6337 33.3686 6.02019 32.2378C4.40668 31.107 4.40669 29.2736 6.02019 28.1427Z" fill="#2FCEB1"/>
<path d="M13.8772 3.06021C15.894 1.64673 19.1641 1.64673 21.181 3.06021C23.1978 4.47379 23.1978 6.76557 21.181 8.17915C19.1641 9.59263 15.894 9.59263 13.8772 8.17915C11.8603 6.76557 11.8603 4.47379 13.8772 3.06021Z" fill="#2FCEB1"/>
<path d="M33.4203 18.9286C35.8406 17.2324 39.7646 17.2324 42.1848 18.9286C44.6052 20.6248 44.6052 23.3751 42.1848 25.0713C39.7646 26.7676 35.8406 26.7676 33.4203 25.0713C31.0001 23.3751 31.0001 20.6248 33.4203 18.9286Z" fill="#2FCEB1"/>
<path d="M22.7671 10.7385C25.1874 9.04222 29.1113 9.04222 31.5317 10.7385C33.9519 12.4347 33.9519 15.1848 31.5317 16.8812C29.1113 18.5774 25.1874 18.5774 22.7671 16.8812C20.3469 15.1848 20.3469 12.4347 22.7671 10.7385Z" fill="#2FCEB1"/>
</mask>
<g mask="url(#mask0_886_629)">
<rect y="2" width="44.0281" height="40" fill="white"/>
</g>
</g>
<path d="M70.7906 32.32C69.0626 32.32 67.4413 32 65.9266 31.36C64.4333 30.6987 63.1213 29.792 61.9906 28.64C60.8813 27.4667 60.0066 26.1013 59.3666 24.544C58.748 22.9867 58.4386 21.3013 58.4386 19.488C58.4386 17.696 58.748 16.032 59.3666 14.496C60.0066 12.9387 60.8813 11.584 61.9906 10.432C63.1213 9.25867 64.4333 8.34133 65.9266 7.68C67.42 7.01867 69.0413 6.688 70.7906 6.688C72.4333 6.688 73.8413 6.90133 75.0146 7.328C76.2093 7.75467 77.404 8.45867 78.5986 9.44C78.7693 9.568 78.8973 9.70667 78.9826 9.856C79.0893 9.984 79.1533 10.1227 79.1746 10.272C79.2173 10.4 79.2386 10.56 79.2386 10.752C79.2386 11.1573 79.0893 11.4987 78.7906 11.776C78.5133 12.032 78.172 12.1813 77.7666 12.224C77.3613 12.2453 76.9666 12.1067 76.5826 11.808C75.7933 11.1253 74.972 10.6027 74.1186 10.24C73.2866 9.87733 72.1773 9.696 70.7906 9.696C69.532 9.696 68.348 9.952 67.2386 10.464C66.1293 10.976 65.148 11.68 64.2946 12.576C63.4626 13.472 62.812 14.5173 62.3426 15.712C61.8733 16.8853 61.6386 18.144 61.6386 19.488C61.6386 20.8533 61.8733 22.1333 62.3426 23.328C62.812 24.5013 63.4626 25.536 64.2946 26.432C65.148 27.328 66.1293 28.032 67.2386 28.544C68.348 29.0347 69.532 29.28 70.7906 29.28C71.8786 29.28 72.9026 29.0987 73.8626 28.736C74.844 28.352 75.7826 27.8293 76.6786 27.168C77.0626 26.8907 77.436 26.7733 77.7986 26.816C78.1826 26.8373 78.5026 26.9867 78.7586 27.264C79.0146 27.52 79.1426 27.8827 79.1426 28.352C79.1426 28.5653 79.1 28.7787 79.0146 28.992C78.9293 29.184 78.8013 29.3653 78.6306 29.536C77.4786 30.4533 76.2413 31.1467 74.9186 31.616C73.6173 32.0853 72.2413 32.32 70.7906 32.32ZM87.3056 32C86.367 32 85.535 31.744 84.8096 31.232C84.0843 30.72 83.519 30.0267 83.1136 29.152C82.7083 28.256 82.5056 27.232 82.5056 26.08V8.608C82.5056 8.13867 82.655 7.75467 82.9536 7.456C83.2523 7.15733 83.6363 7.008 84.1056 7.008C84.575 7.008 84.959 7.15733 85.2576 7.456C85.5563 7.75467 85.7056 8.13867 85.7056 8.608V26.08C85.7056 26.8693 85.855 27.52 86.1536 28.032C86.4523 28.544 86.8363 28.8 87.3056 28.8H88.1056C88.5323 28.8 88.8736 28.9493 89.1296 29.248C89.407 29.5467 89.5456 29.9307 89.5456 30.4C89.5456 30.8693 89.343 31.2533 88.9376 31.552C88.5323 31.8507 88.0096 32 87.3696 32H87.3056ZM98.0666 32.128C96.5093 32.128 95.112 31.744 93.8746 30.976C92.6373 30.1867 91.656 29.1307 90.9306 27.808C90.2266 26.464 89.8746 24.9493 89.8746 23.264C89.8746 21.5787 90.2586 20.064 91.0266 18.72C91.816 17.376 92.872 16.32 94.1946 15.552C95.5386 14.7627 97.0426 14.368 98.7066 14.368C100.371 14.368 101.864 14.7627 103.187 15.552C104.509 16.32 105.555 17.376 106.323 18.72C107.112 20.064 107.507 21.5787 107.507 23.264H106.259C106.259 24.9493 105.896 26.464 105.171 27.808C104.467 29.1307 103.496 30.1867 102.259 30.976C101.021 31.744 99.624 32.128 98.0666 32.128ZM98.7066 29.248C99.7946 29.248 100.765 28.992 101.619 28.48C102.472 27.9467 103.144 27.232 103.635 26.336C104.125 25.4187 104.371 24.3947 104.371 23.264C104.371 22.112 104.125 21.088 103.635 20.192C103.144 19.2747 102.472 18.56 101.619 18.048C100.765 17.5147 99.7946 17.248 98.7066 17.248C97.64 17.248 96.6693 17.5147 95.7946 18.048C94.9413 18.56 94.2586 19.2747 93.7466 20.192C93.256 21.088 93.0106 22.112 93.0106 23.264C93.0106 24.3947 93.256 25.4187 93.7466 26.336C94.2586 27.232 94.9413 27.9467 95.7946 28.48C96.6693 28.992 97.64 29.248 98.7066 29.248ZM105.875 32.032C105.405 32.032 105.011 31.8827 104.691 31.584C104.392 31.264 104.243 30.8693 104.243 30.4V25.504L104.851 22.112L107.507 23.264V30.4C107.507 30.8693 107.347 31.264 107.027 31.584C106.728 31.8827 106.344 32.032 105.875 32.032ZM117.732 32C116.666 32 115.706 31.7333 114.852 31.2C113.999 30.6453 113.327 29.8987 112.836 28.96C112.346 28.0213 112.1 26.9653 112.1 25.792V10.528C112.1 10.0587 112.25 9.67467 112.548 9.376C112.847 9.07733 113.231 8.928 113.7 8.928C114.17 8.928 114.554 9.07733 114.852 9.376C115.151 9.67467 115.3 10.0587 115.3 10.528V25.792C115.3 26.6453 115.535 27.36 116.004 27.936C116.474 28.512 117.05 28.8 117.732 28.8H118.82C119.204 28.8 119.524 28.9493 119.78 29.248C120.058 29.5467 120.196 29.9307 120.196 30.4C120.196 30.8693 120.015 31.2533 119.652 31.552C119.311 31.8507 118.863 32 118.308 32H117.732ZM110.628 17.888C110.18 17.888 109.818 17.76 109.54 17.504C109.263 17.248 109.124 16.928 109.124 16.544C109.124 16.1173 109.263 15.776 109.54 15.52C109.818 15.264 110.18 15.136 110.628 15.136H118.02C118.468 15.136 118.831 15.264 119.108 15.52C119.386 15.776 119.524 16.1173 119.524 16.544C119.524 16.928 119.386 17.248 119.108 17.504C118.831 17.76 118.468 17.888 118.02 17.888H110.628ZM129.576 32C128.509 32 127.549 31.7333 126.696 31.2C125.843 30.6453 125.171 29.8987 124.68 28.96C124.189 28.0213 123.944 26.9653 123.944 25.792V10.528C123.944 10.0587 124.093 9.67467 124.392 9.376C124.691 9.07733 125.075 8.928 125.544 8.928C126.013 8.928 126.397 9.07733 126.696 9.376C126.995 9.67467 127.144 10.0587 127.144 10.528V25.792C127.144 26.6453 127.379 27.36 127.848 27.936C128.317 28.512 128.893 28.8 129.576 28.8H130.664C131.048 28.8 131.368 28.9493 131.624 29.248C131.901 29.5467 132.04 29.9307 132.04 30.4C132.04 30.8693 131.859 31.2533 131.496 31.552C131.155 31.8507 130.707 32 130.152 32H129.576ZM122.472 17.888C122.024 17.888 121.661 17.76 121.384 17.504C121.107 17.248 120.968 16.928 120.968 16.544C120.968 16.1173 121.107 15.776 121.384 15.52C121.661 15.264 122.024 15.136 122.472 15.136H129.864C130.312 15.136 130.675 15.264 130.952 15.52C131.229 15.776 131.368 16.1173 131.368 16.544C131.368 16.928 131.229 17.248 130.952 17.504C130.675 17.76 130.312 17.888 129.864 17.888H122.472ZM143.276 32.128C141.505 32.128 139.927 31.7547 138.54 31.008C137.175 30.24 136.097 29.1947 135.308 27.872C134.54 26.528 134.156 24.992 134.156 23.264C134.156 21.5147 134.519 19.9787 135.244 18.656C135.991 17.312 137.015 16.2667 138.316 15.52C139.617 14.752 141.111 14.368 142.796 14.368C144.46 14.368 145.889 14.7413 147.084 15.488C148.279 16.2133 149.185 17.2267 149.804 18.528C150.444 19.808 150.764 21.2907 150.764 22.976C150.764 23.3813 150.625 23.7227 150.348 24C150.071 24.256 149.719 24.384 149.292 24.384H136.396V21.824H149.196L147.884 22.72C147.863 21.6533 147.649 20.704 147.244 19.872C146.839 19.0187 146.263 18.3467 145.516 17.856C144.769 17.3653 143.863 17.12 142.796 17.12C141.58 17.12 140.535 17.3867 139.66 17.92C138.807 18.4533 138.156 19.1893 137.708 20.128C137.26 21.0453 137.036 22.0907 137.036 23.264C137.036 24.4373 137.303 25.4827 137.836 26.4C138.369 27.3173 139.105 28.0427 140.044 28.576C140.983 29.1093 142.06 29.376 143.276 29.376C143.937 29.376 144.609 29.2587 145.292 29.024C145.996 28.768 146.561 28.48 146.988 28.16C147.308 27.9253 147.649 27.808 148.012 27.808C148.396 27.7867 148.727 27.8933 149.004 28.128C149.367 28.448 149.559 28.8 149.58 29.184C149.601 29.568 149.431 29.8987 149.068 30.176C148.343 30.752 147.436 31.2213 146.348 31.584C145.281 31.9467 144.257 32.128 143.276 32.128ZM155.495 21.056C155.495 19.776 155.804 18.6347 156.423 17.632C157.063 16.608 157.916 15.7973 158.983 15.2C160.05 14.6027 161.223 14.304 162.503 14.304C163.783 14.304 164.732 14.5173 165.351 14.944C165.991 15.3493 166.236 15.84 166.087 16.416C166.023 16.7147 165.895 16.9493 165.703 17.12C165.532 17.2693 165.33 17.3653 165.095 17.408C164.86 17.4507 164.604 17.44 164.327 17.376C162.962 17.0987 161.735 17.0773 160.647 17.312C159.559 17.5467 158.695 17.984 158.055 18.624C157.436 19.264 157.127 20.0747 157.127 21.056H155.495ZM155.527 32C155.015 32 154.62 31.872 154.343 31.616C154.066 31.3387 153.927 30.9333 153.927 30.4V16.096C153.927 15.584 154.066 15.1893 154.343 14.912C154.62 14.6347 155.015 14.496 155.527 14.496C156.06 14.496 156.455 14.6347 156.711 14.912C156.988 15.168 157.127 15.5627 157.127 16.096V30.4C157.127 30.912 156.988 31.3067 156.711 31.584C156.455 31.8613 156.06 32 155.527 32Z" fill="white"/>
<defs>
<clipPath id="clip0_886_629">
<rect width="44" height="40" fill="white" transform="matrix(1 0 0 -1 0 42)"/>
</clipPath>
</defs>
</svg>
