<svg width="68" height="45" viewBox="0 0 68 45" fill="none" xmlns="http://www.w3.org/2000/svg">
<path d="M40.6027 10.4902H27.3579V34.5098H40.6027V10.4902Z" fill="#FF5A00"/>
<path d="M28.2396 22.4999C28.2396 17.6199 30.5123 13.2886 33.9999 10.4901C31.4332 8.45306 28.1955 7.22192 24.6638 7.22192C16.2976 7.22192 9.52832 14.055 9.52832 22.4999C9.52832 30.9448 16.2976 37.7779 24.6638 37.7779C28.1955 37.7779 31.4332 36.5467 33.9999 34.5097C30.5075 31.7507 28.2396 27.3799 28.2396 22.4999Z" fill="#EB001B"/>
<path d="M58.472 22.4999C58.472 30.9448 51.7026 37.7779 43.3365 37.7779C39.8049 37.7779 36.5671 36.5467 34.0005 34.5097C37.5321 31.7063 39.7608 27.3799 39.7608 22.4999C39.7608 17.6199 37.488 13.2886 34.0005 10.4901C36.5623 8.45306 39.8 7.22192 43.3316 7.22192C51.7026 7.22192 58.472 14.0995 58.472 22.4999Z" fill="#F79E1B"/>
</svg>
