<svg width="44" height="45" viewBox="0 0 44 45" fill="none" xmlns="http://www.w3.org/2000/svg">
<g clip-path="url(#clip0_1245_435)">
<path d="M36.8565 11.8678C36.931 11.2624 36.9699 10.646 36.9699 10.0204C36.9699 4.7625 32.7075 0.5 27.4495 0.5H11.5389C10.5381 0.5 9.68359 1.22273 9.51756 2.20964L3.6549 37.0551C3.44453 38.3055 4.4084 39.445 5.67624 39.445H11.4952C12.496 39.445 13.3665 38.7228 13.5325 37.7358C13.5325 37.7358 13.5422 37.6779 13.5597 37.5738H13.5598L12.7489 42.3937C12.5636 43.4956 13.4131 44.5 14.5306 44.5H19.6212C20.5034 44.5 21.2565 43.8629 21.4028 42.9931L22.849 34.3976C23.0983 32.9159 24.3811 31.8309 25.8836 31.8309H27.2209C34.4852 31.8309 40.374 25.9421 40.374 18.6778C40.374 15.8669 38.9846 13.3822 36.8565 11.8678Z" fill="#002987"/>
<path d="M36.8566 11.8679C35.9462 19.2739 29.6341 25.0086 21.9821 25.0086H17.5421C16.54 25.0086 15.6745 25.6761 15.403 26.6199L12.7491 42.3936C12.5637 43.4957 13.4132 44.5001 14.5307 44.5001H19.6214C20.5035 44.5001 21.2567 43.8631 21.4029 42.9932L22.8492 34.3977C23.0985 32.916 24.3813 31.831 25.8837 31.831H27.2211C34.4854 31.831 40.3742 25.9422 40.3742 18.678C40.3742 15.867 38.9847 13.3823 36.8566 11.8679Z" fill="#0085CC"/>
<path d="M17.542 25.0086H21.9819C29.6341 25.0086 35.9462 19.2739 36.8565 11.868C35.4912 10.8964 33.8226 10.323 32.0191 10.323H20.4304C19.111 10.323 17.9845 11.2758 17.7655 12.5769L15.4028 26.6198C15.6743 25.676 16.5399 25.0086 17.542 25.0086Z" fill="#00186A"/>
</g>
<defs>
<clipPath id="clip0_1245_435">
<rect width="44" height="44" fill="white" transform="translate(0 0.5)"/>
</clipPath>
</defs>
</svg>
