<svg width="74" height="47" viewBox="0 0 74 47" fill="none" xmlns="http://www.w3.org/2000/svg">
<path d="M46.4705 13.4524C42.0272 13.4524 38.0564 15.7349 38.0564 19.952C38.0564 24.7883 45.0987 25.1223 45.0987 27.5519C45.0987 28.5749 43.9158 29.4907 41.8955 29.4907C39.0282 29.4907 36.8852 28.2111 36.8852 28.2111L35.9682 32.4667C35.9682 32.4667 38.4369 33.5475 41.7145 33.5475C46.5725 33.5475 50.395 31.153 50.395 26.8637C50.395 21.7533 43.3235 21.4292 43.3235 19.1742C43.3235 18.3727 44.2945 17.4947 46.3091 17.4947C48.5821 17.4947 50.4366 18.4253 50.4366 18.4253L51.334 14.3151C51.334 14.3151 49.3162 13.4524 46.4705 13.4524ZM5.81853 13.7626L5.71094 14.383C5.71094 14.383 7.58024 14.7221 9.26386 15.3985C11.4317 16.174 11.586 16.6256 11.9512 18.0278L15.9296 33.2276H21.2626L29.4786 13.7626H24.1578L18.8785 26.9969L16.7243 15.7789C16.5267 14.495 15.526 13.7626 14.3011 13.7626H5.81853ZM31.6181 13.7626L27.4441 33.2276H32.518L36.6773 13.7626H31.6181ZM59.9168 13.7626C58.6933 13.7626 58.045 14.4119 57.5693 15.5462L50.1359 33.2276H55.4566L56.4861 30.2807H62.9684L63.5944 33.2276H68.2893L64.1935 13.7626H59.9168ZM60.6088 19.0214L62.186 26.3257H57.9606L60.6088 19.0214Z" fill="#1434CB"/>
</svg>
