<svg width="512" height="512" viewBox="0 0 512 512" fill="none" xmlns="http://www.w3.org/2000/svg">
<g clip-path="url(#clip0_878_641)">
<mask id="mask0_878_641" style="mask-type:alpha" maskUnits="userSpaceOnUse" x="2" y="24" width="510" height="464">
<path d="M72.4061 137.501C91.0816 124.412 121.361 124.412 140.037 137.501C158.711 150.59 158.711 171.812 140.037 184.901C121.361 197.99 91.0816 197.99 72.4061 184.901C53.7305 171.812 53.7305 150.59 72.4061 137.501Z" fill="#2FCEB1"/>
<path d="M266.238 315.246C294.252 295.614 339.67 295.614 367.683 315.246C395.696 334.88 395.696 366.712 367.683 386.345C339.67 405.978 294.252 405.978 266.238 386.345C238.225 366.712 238.225 334.88 266.238 315.246Z" fill="#2FCEB1"/>
<path d="M163.344 226.374C186.688 210.014 224.537 210.014 247.882 226.374C271.226 242.736 271.226 269.262 247.882 285.623C224.537 301.984 186.688 301.984 163.344 285.623C140 269.262 140 242.736 163.344 226.374Z" fill="#2FCEB1"/>
<path d="M13.2296 238.225C27.2362 228.409 49.9454 228.409 63.9521 238.225C77.9587 248.041 77.9587 263.957 63.9521 273.774C49.9454 283.591 27.2362 283.591 13.2296 273.774C-0.777057 263.957 -0.777044 248.041 13.2296 238.225Z" fill="#2FCEB1"/>
<path d="M163.344 415.97C186.688 399.609 224.537 399.609 247.882 415.97C271.226 432.331 271.226 458.857 247.882 475.218C224.537 491.579 186.688 491.579 163.344 475.218C140 458.857 140 432.331 163.344 415.97Z" fill="#2FCEB1"/>
<path d="M72.406 327.097C91.0815 314.009 121.361 314.009 140.037 327.097C158.711 340.186 158.711 361.408 140.037 374.496C121.361 387.585 91.0815 387.585 72.406 374.496C53.7305 361.408 53.7306 340.186 72.406 327.097Z" fill="#2FCEB1"/>
<path d="M163.344 36.7791C186.688 20.4189 224.537 20.4189 247.882 36.7791C271.226 53.1405 271.226 79.6668 247.882 96.0282C224.537 112.388 186.688 112.388 163.344 96.0282C140 79.6668 140 53.1405 163.344 36.7791Z" fill="#2FCEB1"/>
<path d="M389.543 220.451C417.557 200.818 462.975 200.818 490.988 220.451C519.002 240.083 519.002 271.915 490.988 291.548C462.975 311.182 417.557 311.182 389.543 291.548C361.53 271.915 361.53 240.083 389.543 220.451Z" fill="#2FCEB1"/>
<path d="M266.238 125.655C294.252 106.021 339.67 106.021 367.683 125.655C395.696 145.288 395.696 177.119 367.683 196.753C339.67 216.386 294.252 216.386 266.238 196.753C238.225 177.119 238.225 145.288 266.238 125.655Z" fill="#2FCEB1"/>
</mask>
<g mask="url(#mask0_878_641)">
<rect x="2.72363" y="24.5107" width="509.602" height="462.979" fill="#47968E"/>
</g>
</g>
<defs>
<clipPath id="clip0_878_641">
<rect width="509.277" height="462.979" fill="white" transform="matrix(1 0 0 -1 2.72363 487.489)"/>
</clipPath>
</defs>
</svg>
